<?xml version="1.0" standalone="no"?>
<!DOCTYPE svg PUBLIC "-//W3C//DTD SVG 20010904//EN"
 "http://www.w3.org/TR/2001/REC-SVG-20010904/DTD/svg10.dtd">
<svg version="1.0" xmlns="http://www.w3.org/2000/svg"
 width="50.000000pt" height="50.000000pt" viewBox="0 0 50.000000 50.000000"
 preserveAspectRatio="xMidYMid meet">

<g transform="translate(0.000000,50.000000) scale(0.100000,-0.100000)"
fill="#9BDEAC" stroke="none">
<path d="M198 491 c-76 -25 -131 -101 -132 -181 0 -27 10 -67 25 -100 31 -65
143 -210 164 -210 21 0 108 113 146 190 75 149 14 292 -128 305 -26 2 -60 0
-75 -4z m128 -37 c68 -32 98 -123 69 -209 -18 -53 -64 -128 -112 -184 l-29
-34 -58 74 c-104 133 -125 200 -84 279 40 79 135 111 214 74z"/>
<path d="M185 374 c-35 -38 -34 -87 4 -125 20 -20 39 -29 61 -29 45 0 90 47
90 95 0 79 -101 117 -155 59z m113 -22 c31 -39 1 -102 -48 -102 -37 0 -62 30
-58 71 5 55 72 74 106 31z"/>
</g>
</svg>
