<?xml version="1.0" standalone="no"?>
<!DOCTYPE svg PUBLIC "-//W3C//DTD SVG 20010904//EN"
 "http://www.w3.org/TR/2001/REC-SVG-20010904/DTD/svg10.dtd">
<svg version="1.0" xmlns="http://www.w3.org/2000/svg"
 width="69.000000pt" height="54.000000pt" viewBox="0 0 69.000000 54.000000"
 preserveAspectRatio="xMidYMid meet">

<g transform="translate(0.000000,54.000000) scale(0.100000,-0.100000)"
fill="#9BDEAC" stroke="none">
<path d="M20 520 c-19 -19 -20 -33 -20 -250 0 -217 1 -231 20 -250 19 -19 31
-20 213 -18 163 3 192 5 192 18 0 13 -29 15 -192 18 l-193 2 0 217 0 216 25
-23 c19 -18 28 -21 37 -12 9 9 6 18 -12 37 l-23 25 274 0 274 0 -125 -125
c-93 -93 -131 -125 -150 -125 -16 0 -43 18 -82 57 -47 46 -60 55 -70 45 -11
-11 0 -26 53 -78 99 -96 101 -95 266 68 l133 132 0 -217 0 -217 -51 0 c-43 0
-50 -3 -47 -18 5 -25 93 -30 119 -6 18 16 19 34 19 254 0 217 -2 238 -18 253
-16 15 -54 17 -320 17 -289 0 -303 -1 -322 -20z"/>
</g>
</svg>
