<?xml version="1.0" standalone="no"?>
<!DOCTYPE svg PUBLIC "-//W3C//DTD SVG 20010904//EN"
 "http://www.w3.org/TR/2001/REC-SVG-20010904/DTD/svg10.dtd">
<svg version="1.0" xmlns="http://www.w3.org/2000/svg"
 width="54.000000pt" height="54.000000pt" viewBox="0 0 54.000000 54.000000"
 preserveAspectRatio="xMidYMid meet">

<g transform="translate(0.000000,54.000000) scale(0.100000,-0.100000)"
fill="#9BDEAC" stroke="none">
<path d="M71 527 c-70 -36 -88 -138 -39 -232 36 -69 101 -146 167 -198 109
-86 194 -113 264 -84 38 16 77 67 77 101 0 23 -58 77 -116 107 l-43 23 -30
-22 c-17 -12 -34 -22 -39 -22 -10 0 -112 105 -112 115 0 3 10 19 22 36 l22 30
-23 43 c-30 58 -84 116 -107 116 -11 0 -30 -6 -43 -13z m94 -82 l38 -56 -22
-30 c-31 -42 -23 -64 53 -137 68 -66 92 -74 121 -42 10 11 23 20 28 20 18 0
117 -73 117 -86 0 -26 -13 -45 -41 -59 -74 -39 -167 0 -284 118 -128 129 -170
243 -110 302 37 38 57 32 100 -30z"/>
<path d="M360 468 c0 -6 7 -20 17 -30 15 -17 15 -19 0 -36 -33 -37 -12 -58 25
-25 17 15 19 15 36 0 37 -33 58 -12 25 25 -15 17 -15 19 0 36 33 37 12 58 -25
25 -17 -15 -19 -15 -36 0 -22 20 -42 22 -42 5z"/>
</g>
</svg>
